# xmcd
#
# Track frame offsets:
#	150
#	18773
#	35180
#	46917
#	62659
#	77808
#	102215
#	114909
#	132349
#	145076
#	158700
#	173427
#	193293
#	203458
#
# Disc length: 2992 seconds
#
# Revision: 0
# Processed by: cddbd v1.5.2PL0 Copyright (c) Steve Scherf et al.
# Submitted via: EasyCDDAExtractor 16.0.0.1
#
DISCID=b10bae0e
DTITLE=Paul Daraîche - Mes écritures and confidences 
DYEAR=2012
DGENRE=Country pop
TTITLE0=Laisse-moi te dire
TTITLE1=Les anges du Mexique
TTITLE2=C'est comme ca en Acadie
TTITLE3=T'envoler
TTITLE4=Mon amour, mon amie
TTITLE5=Une croix sur ton nom
TTITLE6=J'ai le goût de te connaitre
TTITLE7=S'il n'y avait plus de lendemain
TTITLE8=La meme rengaine
TTITLE9=À ma mère (Perce les nuages)
TTITLE10=Du country
TTITLE11=Où serons-nous, demain
TTITLE12=Mon métier, c'est la scène
TTITLE13=Reste avec moi
EXTD=
EXTT0=
EXTT1=
EXTT2=
EXTT3=
EXTT4=
EXTT5=
EXTT6=
EXTT7=
EXTT8=
EXTT9=
EXTT10=
EXTT11=
EXTT12=
EXTT13=
PLAYORDER=
